<svg id="Layer_1" data-name="Layer 1" xmlns="http://www.w3.org/2000/svg" xmlns:xlink="http://www.w3.org/1999/xlink" viewBox="0 0 110.85 128"><defs><style>.cls-1{fill:#fef2d6;}.cls-2{fill:#f8f9f9;}.cls-3{fill:#2e3338;}.cls-4{fill:#fbcc5c;}.cls-5{fill:#35d07f;}.cls-6{fill:#5ea33b;}</style></defs><polygon class="cls-1" points="110.85 32 110.85 96 55.43 128 11.08 102.4 10.88 102.28 0 96 0 32 55.43 0 110.85 32"/><polygon class="cls-2" points="101.44 37.43 101.44 90.57 55.43 117.13 9.41 90.57 9.41 37.43 55.43 10.87 101.44 37.43"/><image width="400" height="400" transform="translate(18.8 22.99) scale(0.18)" xlink:href="celo%20Kudos/05-Connect%20People%20(light%20bg).png"/><g id="Livello_2" data-name="Livello 2"><path id="Type" class="cls-3" d="M87.59,106.81l.44-.48-2.59-4.48-.44.49Zm-7.81.9a1.27,1.27,0,0,1,1.09-.09l-.08-.64a1.73,1.73,0,0,0-1.31.22,1.78,1.78,0,0,0-.67,2.45,1.83,1.83,0,0,0,2.49.69,2,2,0,0,0,.85-.91l-.36-.62a1.68,1.68,0,0,1-.74,1,1.26,1.26,0,0,1-1.7-.46A1.18,1.18,0,0,1,79.78,107.71Zm3.3-2.6a1.69,1.69,0,0,0-.58,2.4,1.83,1.83,0,0,0,2.49.69,2,2,0,0,0,.85-.91l-.36-.62a1.68,1.68,0,0,1-.74,1,1.19,1.19,0,0,1-1.54-.26L85.57,106l-.12-.2A1.68,1.68,0,0,0,83.08,105.11Zm5.84-3.38a1.81,1.81,0,1,0,2.48.66A1.8,1.8,0,0,0,88.92,101.73Zm-5.54,3.89a1,1,0,0,1,1.36.25l-1.81,1A1,1,0,0,1,83.38,105.62Zm7.06-1.27a1.22,1.22,0,1,1,.45-1.67,1.22,1.22,0,0,1-.45,1.67Z" transform="translate(0 0)"/><path id="Bottom_Ring" data-name="Bottom Ring" class="cls-4" d="M74.64,114.41a2,2,0,1,0-2.73-.72A2,2,0,0,0,74.64,114.41ZM75,115a2.72,2.72,0,1,1,1-3.72A2.73,2.73,0,0,1,75,115Z" transform="translate(0 0)"/><path id="Top_Ring" data-name="Top Ring" class="cls-5" d="M75.17,112.43a2,2,0,1,0-2.73-.73A2,2,0,0,0,75.17,112.43Zm.37.62a2.72,2.72,0,1,1,1-3.72A2.72,2.72,0,0,1,75.54,113.05Z" transform="translate(0 0)"/><path id="Rings_Overlap" data-name="Rings Overlap" class="cls-6" d="M75.61,113a2,2,0,0,0,0-.88,1.89,1.89,0,0,0,.48-.74,2.94,2.94,0,0,1,.31,1,3,3,0,0,1-.74.67Zm-3.36-1.76a2,2,0,0,0-.48.74,2.7,2.7,0,0,1-.3-.95,2.6,2.6,0,0,1,.73-.67A2,2,0,0,0,72.25,111.25Z" transform="translate(0 0)"/></g><path class="cls-3" d="M55.42,10.86l-46,26.57V90.56l46,26.57,46-26.57V37.43ZM99.72,89.5,55.54,115,11.36,89.5v-51L55.54,13,99.72,38.49Z" transform="translate(0 0)"/></svg>